<svg width="1989" height="971" viewBox="0 0 1989 971" fill="none"
    xmlns="http://www.w3.org/2000/svg">
    <path d="M632.716 405.458L512.716 493.458L428.474 661.458L524.474 757.458H596.716L724.716 493.458L632.716 405.458Z" fill="#A78BFA" stroke="black" stroke-width="2"/>
    <path d="M632.716 405.458L616.716 377.458L544.716 417.458L424.716 405.458L336.716 245.458L304.716 273.458L124.716 133.458L12.7156 245.458L76.7156 309.458V341.458L108.716 373.458V437.458H140.716V469.458L268.716 597.458H332.716L396.716 661.458H428.474L512.716 493.458L632.716 405.458Z" fill="#E879F9" stroke="black" stroke-width="2"/>
    <path d="M336.716 245.458L424.716 405.458L544.716 417.458L616.716 377.458L664.716 245.458H588.474L556.474 213.458H524.716L332.716 21.4582H236.716L124.716 133.458L304.716 273.458L336.716 245.458Z" fill="#FACC15" stroke="black" stroke-width="2"/>
    <path d="M1040.72 321.458L1004.72 373.458L1028.72 389.458L1016.72 433.458L1076.72 465.458L1104.72 541.458L1168.72 581.458L1184.72 609.458L1228.72 605.458L1252.72 517.458L1332.72 501.458L1409.31 330.292L1260.47 181.458H1228.47L1196.47 149.458H1132.47L1100.47 181.458H964.716L1032.72 225.458L1040.72 321.458Z" fill="#A3E635" stroke="black" stroke-width="2"/>
    <path d="M632.716 405.458L724.716 493.458L796.716 461.458L928.716 473.458L1016.72 433.458L1028.72 389.458L1004.72 373.458L1040.72 321.458L1032.72 225.458L964.716 181.458H908.474L844.474 245.458H664.716L616.716 377.458L632.716 405.458Z" fill="#FB923C" stroke="black" stroke-width="2"/>
    <path d="M1372.72 549.458L1209.38 638.125L1284.72 717.458L1340.72 917.458H1420.72L1516.72 821.458V757.458L1548.72 725.458H1580.72L1624.72 681.458L1516.72 601.458L1372.72 549.458Z" fill="#2DD4BF" stroke="black" stroke-width="2"/>
    <path d="M1932.72 533.458L1868.72 469.458H1836.47L1804.47 501.458H1740.47L1708.47 469.458H1612.47L1580.47 437.458H1516.47L1409.31 330.291L1332.72 501.458L1252.72 517.458L1228.72 605.458L1184.72 609.458L1209.38 638.125L1372.72 549.458L1516.72 601.458L1624.72 681.458L1644.72 661.458V629.458L1740.72 533.458H1836.72L1868.72 501.458L1898.72 533.458L1932.72 565.458H1964.72V533.458H1932.72Z" fill="#4ADE80" stroke="black" stroke-width="2"/>
    <path d="M984.716 665.458L1104.72 541.458L1076.72 465.458L1016.72 433.458L928.716 473.458V581.458L836.716 789.458L784.716 821.458H876.474L940.474 885.458H972.474L1008.72 789.458L984.716 665.458Z" fill="#60A5FA" stroke="black" stroke-width="2"/>
    <path d="M928.716 581.458V473.458L796.716 461.458L724.716 493.458L596.716 757.458H684.474L748.474 821.458H784.716L836.716 789.458L928.716 581.458Z" fill="#818CF8" stroke="black" stroke-width="2"/>
    <path d="M1209.38 638.125L1184.72 609.458L1168.72 581.458L1104.72 541.458L984.716 665.458L1008.72 789.458L972.474 885.458L1004.47 917.458H1036.47L1068.47 949.458L1100.47 917.458H1132.47L1164.47 885.458H1292.47L1324.47 917.458H1340.72L1284.72 717.458L1209.38 638.125Z" fill="#22D3EE" stroke="black" stroke-width="2"/>
</svg>
