<svg viewBox="0 0 186 65" fill="none"
    xmlns="http://www.w3.org/2000/svg">
    <path d="M25.7575 45.8641C24.214 45.8641 22.935 45.4672 21.9207 44.6733C20.9505 43.8354 20.2889 42.799 19.9361 41.5642C19.5833 40.3293 19.3628 38.9622 19.2746 37.4627C19.1864 35.9192 19.1423 34.3756 19.1423 32.832C19.1864 31.2444 19.1864 29.789 19.1423 28.466C19.0982 27.1429 18.9659 26.0845 18.7454 25.2906C18.5249 24.4968 18.1059 24.0999 17.4885 24.0999C16.6064 24.0999 15.989 24.4748 15.6362 25.2245C15.2834 25.9301 15.107 26.9004 15.107 28.1352C15.107 29.3259 15.1731 30.6269 15.3054 32.0382C15.4818 33.4495 15.6582 34.8607 15.8347 36.272C16.0111 37.6391 16.0992 38.8519 16.0992 39.9104C16.0992 42.1154 15.5921 43.6369 14.5778 44.4749C13.6075 45.3128 12.2624 45.7318 10.5424 45.7318C8.82247 45.7318 7.30096 45.0262 5.97791 43.6149C4.69896 42.1595 3.61846 40.3073 2.73643 38.0581C1.8985 35.7648 1.25902 33.2951 0.818006 30.649C0.376989 28.0029 0.156487 25.4891 0.156487 23.1076C0.156487 20.1969 0.465194 17.3744 1.08262 14.6401C1.74414 11.9058 2.71438 9.45812 3.99333 7.29714C5.31638 5.13615 6.94815 3.41619 8.88862 2.13724C10.8291 0.858287 13.1224 0.218811 15.7685 0.218811C17.8413 0.218811 19.5613 0.68188 20.9284 1.60802C22.2956 2.49005 23.376 3.61464 24.1699 4.9818C25.0078 6.34895 25.5811 7.73816 25.8898 9.14941C26.1985 7.73816 26.7498 6.34895 27.5436 4.9818C28.3375 3.61464 29.418 2.49005 30.7851 1.60802C32.1523 0.68188 33.8502 0.218811 35.8789 0.218811C39.2306 0.218811 42.0752 1.2552 44.4126 3.32799C46.7941 5.40077 48.6022 8.26738 49.8371 11.9278C51.0719 15.5442 51.6893 19.7559 51.6893 24.563C51.6893 26.8121 51.4468 29.1936 50.9617 31.7074C50.4765 34.1771 49.7709 36.4925 48.8448 38.6535C47.9628 40.7703 46.8823 42.5124 45.6033 43.8795C44.3244 45.2026 42.869 45.8641 41.2372 45.8641C39.4732 45.8641 38.084 45.4231 37.0696 44.541C36.0553 43.659 35.5481 42.1154 35.5481 39.9104C35.5481 38.8519 35.6363 37.6391 35.8127 36.272C35.9891 34.8607 36.1655 33.4495 36.3419 32.0382C36.5183 30.6269 36.6066 29.3259 36.6066 28.1352C36.6066 26.9004 36.4301 25.9301 36.0773 25.2245C35.7686 24.4748 35.1733 24.0999 34.2912 24.0999C33.6738 24.0999 33.2328 24.4968 32.9682 25.2906C32.7477 26.0845 32.5933 27.1429 32.5051 28.466C32.461 29.7449 32.4389 31.1782 32.4389 32.7659C32.4389 34.3094 32.3948 35.853 32.3066 37.3966C32.2625 38.9401 32.0641 40.3293 31.7113 41.5642C31.4025 42.799 30.741 43.8354 29.7267 44.6733C28.7124 45.4672 27.3893 45.8641 25.7575 45.8641Z" fill="#F59E0B"/>
    <path d="M27.3848 62.5391C26.5942 63.3859 25.2517 63.3859 24.461 62.5391L15.818 53.2816C14.6245 52.0032 15.531 49.9167 17.2799 49.9167L34.5659 49.9167C36.3148 49.9167 37.2213 52.0032 36.0278 53.2816L27.3848 62.5391Z" fill="#431407"/>
    <path d="M63.5293 37.133C61.9613 37.133 60.5213 36.893 59.2093 36.413C57.9293 35.933 56.9053 35.213 56.1373 34.253C55.3693 33.261 54.9853 32.013 54.9853 30.509C54.9853 29.229 55.3693 28.141 56.1373 27.245C56.9053 26.349 57.9293 25.661 59.2093 25.181C60.5213 24.701 61.9613 24.461 63.5293 24.461C64.4573 24.461 65.3053 24.541 66.0733 24.701C66.8413 24.829 67.3693 24.989 67.6573 25.181C67.6573 24.445 67.3533 23.805 66.7453 23.261C66.1373 22.685 65.0813 22.397 63.5773 22.397C62.8733 22.397 62.3133 22.461 61.8973 22.589C61.5133 22.685 61.1613 22.813 60.8413 22.973C60.5213 23.133 60.1533 23.277 59.7373 23.405C59.3533 23.501 58.8253 23.549 58.1533 23.549C57.1613 23.549 56.3613 23.293 55.7533 22.781C55.1773 22.237 54.8893 21.421 54.8893 20.333C54.8893 19.341 55.1613 18.493 55.7053 17.789C56.2813 17.053 57.0173 16.445 57.9133 15.965C58.8093 15.485 59.7693 15.133 60.7933 14.909C61.8493 14.685 62.8573 14.573 63.8173 14.573C66.6653 14.573 68.9853 15.101 70.7773 16.157C72.5693 17.181 73.8973 18.525 74.7613 20.189C75.6253 21.853 76.0573 23.661 76.0573 25.613C76.0573 26.701 75.9613 27.709 75.7693 28.637C75.6093 29.565 75.3853 30.285 75.0973 30.797C75.5453 31.181 75.8813 31.629 76.1053 32.141C76.3613 32.653 76.4893 33.181 76.4893 33.725C76.4893 34.621 76.1853 35.421 75.5773 36.125C75.0013 36.797 74.1693 37.133 73.0813 37.133C72.2493 37.133 71.5933 37.005 71.1133 36.749C70.6333 36.493 70.1533 36.157 69.6733 35.741C68.9053 36.189 68.0573 36.541 67.1293 36.797C66.2013 37.021 65.0013 37.133 63.5293 37.133ZM64.4893 32.285C65.2253 32.285 65.7693 32.141 66.1213 31.853C66.5053 31.533 66.6973 31.181 66.6973 30.797C66.6973 30.413 66.5053 30.077 66.1213 29.789C65.7693 29.469 65.2253 29.309 64.4893 29.309C63.7853 29.309 63.2413 29.469 62.8573 29.789C62.4733 30.077 62.2813 30.413 62.2813 30.797C62.2813 31.181 62.4733 31.533 62.8573 31.853C63.2413 32.141 63.7853 32.285 64.4893 32.285Z" fill="#F59E0B"/>
    <path d="M89.3758 37.133C87.0078 37.133 84.9598 36.573 83.2318 35.453C81.5358 34.333 80.2238 32.877 79.2958 31.085C78.3998 29.293 77.9518 27.421 77.9518 25.469C77.9518 22.973 78.4478 20.925 79.4398 19.325C80.4638 17.725 81.7598 16.541 83.3278 15.773C84.8958 14.973 86.5278 14.573 88.2238 14.573C89.0238 14.573 89.8398 14.669 90.6718 14.861C91.5038 15.021 92.2878 15.309 93.0238 15.725C92.8958 14.349 92.6078 13.005 92.1598 11.693C91.7438 10.349 91.5358 8.98903 91.5358 7.61303C91.5358 6.20503 91.9678 5.16503 92.8318 4.49303C93.6958 3.82103 94.6238 3.48503 95.6158 3.48503C96.7678 3.48503 97.7598 3.85303 98.5918 4.58903C99.4238 5.32503 100.128 6.30103 100.704 7.51703C101.312 8.73303 101.792 10.109 102.144 11.645C102.496 13.149 102.752 14.701 102.912 16.301C103.072 17.901 103.152 19.437 103.152 20.909C103.152 21.389 103.12 22.125 103.056 23.117C103.024 24.109 102.88 25.213 102.624 26.429C102.368 27.645 101.952 28.877 101.376 30.125C100.832 31.373 100.048 32.525 99.0238 33.581C98.0318 34.637 96.7518 35.501 95.1838 36.173C93.6158 36.813 91.6798 37.133 89.3758 37.133ZM89.6638 29.549C90.5278 29.549 91.2798 29.229 91.9198 28.589C92.5598 27.917 92.8798 27.133 92.8798 26.237C92.8798 25.341 92.5598 24.557 91.9198 23.885C91.2798 23.213 90.5278 22.877 89.6638 22.877C88.7998 22.877 88.0318 23.213 87.3598 23.885C86.7198 24.557 86.3998 25.341 86.3998 26.237C86.3998 27.133 86.7198 27.917 87.3598 28.589C88.0318 29.229 88.7998 29.549 89.6638 29.549Z" fill="#F59E0B"/>
    <path d="M116.672 37.133C114.272 37.133 112.16 36.669 110.336 35.741C108.544 34.781 107.136 33.485 106.112 31.853C105.12 30.189 104.624 28.285 104.624 26.141C104.624 24.061 105.12 22.141 106.112 20.381C107.136 18.621 108.528 17.213 110.288 16.157C112.08 15.101 114.128 14.573 116.432 14.573C118.576 14.573 120.416 15.005 121.952 15.869C123.488 16.733 124.656 17.837 125.456 19.181C126.288 20.493 126.704 21.885 126.704 23.357C126.704 24.829 126.368 26.045 125.696 27.005C125.024 27.933 124.144 28.653 123.056 29.165C122 29.645 120.864 29.965 119.648 30.125C118.432 30.285 117.264 30.317 116.144 30.221C115.024 30.093 114.08 29.901 113.312 29.645C113.888 30.573 114.608 31.213 115.472 31.565C116.368 31.885 117.296 32.029 118.256 31.997C119.248 31.933 120.144 31.821 120.944 31.661C121.936 31.437 122.752 31.485 123.392 31.805C124.032 32.125 124.368 32.637 124.4 33.341C124.432 33.917 124.224 34.493 123.776 35.069C123.36 35.645 122.592 36.141 121.472 36.557C120.352 36.941 118.752 37.133 116.672 37.133ZM113.456 23.789C113.776 24.301 114.24 24.669 114.848 24.893C115.456 25.085 116.064 25.149 116.672 25.085C117.312 25.021 117.84 24.845 118.256 24.557C118.704 24.269 118.928 23.869 118.928 23.357C118.928 22.813 118.704 22.333 118.256 21.917C117.84 21.469 117.168 21.245 116.24 21.245C115.344 21.245 114.656 21.533 114.176 22.109C113.696 22.653 113.456 23.213 113.456 23.789Z" fill="#F59E0B"/>
    <path d="M132.787 13.853C131.219 13.853 129.891 13.293 128.803 12.173C127.715 11.021 127.171 9.62903 127.171 7.99703C127.171 6.90903 127.411 5.93303 127.891 5.06903C128.403 4.20503 129.075 3.51703 129.907 3.00503C130.771 2.46103 131.731 2.18903 132.787 2.18903C133.811 2.18903 134.739 2.46103 135.571 3.00503C136.435 3.51703 137.123 4.20503 137.635 5.06903C138.147 5.93303 138.403 6.90903 138.403 7.99703C138.403 9.08503 138.147 10.077 137.635 10.973C137.123 11.837 136.435 12.541 135.571 13.085C134.739 13.597 133.811 13.853 132.787 13.853ZM132.787 37.133C131.507 37.133 130.547 36.765 129.907 36.029C129.299 35.293 128.883 34.173 128.659 32.669C128.467 31.133 128.355 29.165 128.323 26.765C128.323 24.365 128.419 22.397 128.611 20.861C128.835 19.325 129.267 18.205 129.907 17.501C130.547 16.765 131.507 16.397 132.787 16.397C134.067 16.397 135.011 16.765 135.619 17.501C136.259 18.205 136.691 19.325 136.915 20.861C137.139 22.397 137.251 24.365 137.251 26.765C137.283 29.165 137.187 31.133 136.963 32.669C136.739 34.173 136.307 35.293 135.667 36.029C135.027 36.765 134.067 37.133 132.787 37.133Z" fill="#F59E0B"/>
    <path d="M145.947 37.133C144.859 37.133 143.963 36.781 143.259 36.077C142.587 35.341 142.075 34.365 141.723 33.149C141.371 31.933 141.131 30.541 141.003 28.973C140.875 27.405 140.811 25.789 140.811 24.125C140.811 23.005 140.827 21.869 140.859 20.717C140.923 19.533 141.083 18.445 141.339 17.453C141.627 16.461 142.091 15.661 142.731 15.053C143.403 14.413 144.347 14.093 145.563 14.093C146.427 14.093 147.211 14.301 147.915 14.717C148.619 15.101 149.067 15.693 149.259 16.493C149.995 15.821 150.923 15.341 152.043 15.053C153.195 14.733 154.379 14.573 155.595 14.573C156.619 14.573 157.659 14.829 158.715 15.341C159.771 15.821 160.667 16.493 161.403 17.357C162.139 18.221 162.507 19.197 162.507 20.285C162.507 21.213 162.155 22.093 161.451 22.925C160.779 23.757 159.819 24.173 158.571 24.173C158.027 24.173 157.579 24.109 157.227 23.981C156.875 23.821 156.539 23.677 156.219 23.549C155.899 23.421 155.515 23.357 155.067 23.357C153.883 23.357 152.795 23.837 151.803 24.797C150.843 25.725 150.363 26.989 150.363 28.589C150.363 29.421 150.331 30.333 150.267 31.325C150.235 32.285 150.091 33.213 149.835 34.109C149.611 35.005 149.195 35.741 148.587 36.317C147.979 36.861 147.099 37.133 145.947 37.133Z" fill="#F59E0B"/>
    <path d="M172.092 37.133C170.524 37.133 169.084 36.893 167.772 36.413C166.492 35.933 165.468 35.213 164.7 34.253C163.932 33.261 163.548 32.013 163.548 30.509C163.548 29.229 163.932 28.141 164.7 27.245C165.468 26.349 166.492 25.661 167.772 25.181C169.084 24.701 170.524 24.461 172.092 24.461C173.02 24.461 173.868 24.541 174.636 24.701C175.404 24.829 175.932 24.989 176.22 25.181C176.22 24.445 175.916 23.805 175.308 23.261C174.7 22.685 173.644 22.397 172.14 22.397C171.436 22.397 170.876 22.461 170.46 22.589C170.076 22.685 169.724 22.813 169.404 22.973C169.084 23.133 168.716 23.277 168.3 23.405C167.916 23.501 167.388 23.549 166.716 23.549C165.724 23.549 164.924 23.293 164.316 22.781C163.74 22.237 163.452 21.421 163.452 20.333C163.452 19.341 163.724 18.493 164.268 17.789C164.844 17.053 165.58 16.445 166.476 15.965C167.372 15.485 168.332 15.133 169.356 14.909C170.412 14.685 171.42 14.573 172.38 14.573C175.228 14.573 177.548 15.101 179.34 16.157C181.132 17.181 182.46 18.525 183.324 20.189C184.188 21.853 184.62 23.661 184.62 25.613C184.62 26.701 184.524 27.709 184.332 28.637C184.172 29.565 183.948 30.285 183.66 30.797C184.108 31.181 184.444 31.629 184.668 32.141C184.924 32.653 185.052 33.181 185.052 33.725C185.052 34.621 184.748 35.421 184.14 36.125C183.564 36.797 182.732 37.133 181.644 37.133C180.812 37.133 180.156 37.005 179.676 36.749C179.196 36.493 178.716 36.157 178.236 35.741C177.468 36.189 176.62 36.541 175.692 36.797C174.764 37.021 173.564 37.133 172.092 37.133ZM173.052 32.285C173.788 32.285 174.332 32.141 174.684 31.853C175.068 31.533 175.26 31.181 175.26 30.797C175.26 30.413 175.068 30.077 174.684 29.789C174.332 29.469 173.788 29.309 173.052 29.309C172.348 29.309 171.804 29.469 171.42 29.789C171.036 30.077 170.844 30.413 170.844 30.797C170.844 31.181 171.036 31.533 171.42 31.853C171.804 32.141 172.348 32.285 173.052 32.285Z" fill="#F59E0B"/>
    <path d="M61.0218 53.8997C60.5317 53.8997 60.0057 53.8638 59.4439 53.7921C58.894 53.7203 58.3501 53.5709 57.8121 53.3438C57.2742 53.1167 56.7841 52.7819 56.3418 52.3396C55.8995 51.8973 55.5468 51.3116 55.2838 50.5824C55.0208 49.8412 54.8893 48.9267 54.8893 47.8389C54.8893 46.6435 55.0926 45.5556 55.499 44.5754C55.9054 43.5952 56.5211 42.8122 57.3459 42.2264C58.1708 41.6407 59.2048 41.3478 60.448 41.3478C61.3446 41.3478 62.0738 41.4255 62.6356 41.5809C63.2094 41.7363 63.6577 41.9395 63.9805 42.1905C64.3033 42.4416 64.5244 42.7165 64.6439 43.0154C64.7754 43.3142 64.8412 43.6131 64.8412 43.9119C64.8412 44.2228 64.7575 44.5216 64.5902 44.8085C64.4347 45.0954 64.1837 45.3225 63.837 45.4899C63.5023 45.6453 63.1557 45.717 62.797 45.7051C62.4384 45.6812 62.1156 45.6692 61.8287 45.6692C61.2071 45.6692 60.717 45.7828 60.3584 46.0099C60.0117 46.2251 59.7666 46.5598 59.6232 47.0141C59.8145 47.0021 60.0237 46.9961 60.2508 46.9961C60.4899 46.9842 60.7349 46.9782 60.986 46.9782C61.4761 46.9782 61.9423 46.9901 62.3846 47.0141C62.8389 47.026 63.1557 47.0499 63.335 47.0858C63.7534 47.1695 64.0701 47.3368 64.2853 47.5879C64.5005 47.8269 64.6081 48.1019 64.6081 48.4127C64.6081 48.7115 64.5065 48.9805 64.3033 49.2196C64.1 49.4587 63.7713 49.626 63.317 49.7217C63.1497 49.7575 62.8269 49.7874 62.3487 49.8113C61.8825 49.8233 61.3924 49.8293 60.8784 49.8293C60.6752 49.8293 60.4779 49.8293 60.2867 49.8293C60.0954 49.8173 59.922 49.8113 59.7666 49.8113C59.934 50.1819 60.185 50.4748 60.5198 50.69C60.8664 50.8932 61.3087 50.9948 61.8467 50.9948C62.0499 50.9948 62.3428 50.9769 62.7253 50.941C63.1078 50.8932 63.4784 50.9231 63.837 51.0307C64.4108 51.21 64.6977 51.5865 64.6977 52.1603C64.6977 52.4711 64.5902 52.764 64.375 53.039C64.1718 53.3019 63.8012 53.5111 63.2632 53.6666C62.7373 53.822 61.9901 53.8997 61.0218 53.8997Z" fill="#451A03"/>
    <path d="M67.5034 53.9176C66.9894 53.9774 66.565 53.8817 66.2303 53.6307C65.9075 53.3797 65.7462 53.015 65.7462 52.5369C65.7462 52.1543 65.8717 51.73 66.1227 51.2638C66.3857 50.7976 66.7204 50.3015 67.1269 49.7755C66.7324 49.3093 66.4036 48.861 66.1406 48.4306C65.8896 48.0003 65.7641 47.5759 65.7641 47.1575C65.7641 46.6315 65.9016 46.2251 66.1765 45.9382C66.4515 45.6513 66.828 45.5078 67.3062 45.5078C67.6648 45.5078 68.0473 45.6393 68.4538 45.9023C68.8602 46.1653 69.2786 46.506 69.709 46.9244C70.1513 46.494 70.5876 46.1474 71.0179 45.8844C71.4603 45.6094 71.8966 45.472 72.3269 45.472C72.7812 45.472 73.1398 45.6154 73.4028 45.9023C73.6778 46.1892 73.7973 46.5658 73.7614 47.032C73.7256 47.4504 73.5761 47.8927 73.3131 48.3589C73.0502 48.8132 72.7214 49.2853 72.3269 49.7755C72.7453 50.2895 73.086 50.7736 73.349 51.2279C73.612 51.6822 73.7435 52.0826 73.7435 52.4293C73.7435 52.8836 73.6 53.2482 73.3131 53.5231C73.0382 53.7861 72.6557 53.9176 72.1655 53.9176C71.8428 53.9176 71.4722 53.7921 71.0538 53.541C70.6354 53.29 70.1991 52.9613 69.7448 52.5548C69.3384 52.9373 68.9439 53.2482 68.5614 53.4872C68.1908 53.7263 67.8381 53.8698 67.5034 53.9176Z" fill="#451A03"/>
    <path d="M76.138 56.4638C75.6718 56.4638 75.3072 56.2785 75.0442 55.908C74.7932 55.5493 74.6139 55.0771 74.5063 54.4914C74.4106 53.9056 74.3509 53.278 74.327 52.6086C74.315 51.9392 74.309 51.3056 74.309 50.7079C74.309 50.1819 74.321 49.6201 74.3449 49.0224C74.3808 48.4127 74.4525 47.8389 74.5601 47.301C74.6796 46.7511 74.8769 46.3028 75.1518 45.9561C75.4267 45.6094 75.8033 45.4361 76.2815 45.4361C76.652 45.4361 76.939 45.5078 77.1422 45.6513C77.3454 45.7947 77.5008 45.9621 77.6084 46.1534C77.8833 45.9501 78.224 45.7888 78.6305 45.6692C79.0369 45.5377 79.4732 45.472 79.9394 45.472C80.7165 45.472 81.4218 45.6632 82.0553 46.0458C82.7009 46.4283 83.2149 46.9423 83.5974 47.5879C83.98 48.2214 84.1712 48.9267 84.1712 49.7037C84.1712 50.4808 83.98 51.192 83.5974 51.8376C83.2149 52.4831 82.7009 52.9971 82.0553 53.3797C81.4218 53.7622 80.7165 53.9535 79.9394 53.9535C79.4613 53.9535 79.019 53.8937 78.6125 53.7741C78.2061 53.6426 77.8654 53.4693 77.5905 53.2541C77.5905 53.8518 77.5665 54.3958 77.5187 54.8859C77.4829 55.376 77.3633 55.7585 77.1601 56.0335C76.9569 56.3204 76.6162 56.4638 76.138 56.4638ZM79.8498 50.9769C80.1606 50.9769 80.4296 50.8633 80.6567 50.6362C80.8958 50.3971 81.0153 50.1221 81.0153 49.8113C81.0153 49.5005 80.8958 49.2316 80.6567 49.0044C80.4296 48.7653 80.1606 48.6458 79.8498 48.6458C79.539 48.6458 79.264 48.7653 79.025 49.0044C78.7978 49.2316 78.6843 49.5005 78.6843 49.8113C78.6843 50.1221 78.7978 50.3971 79.025 50.6362C79.264 50.8633 79.539 50.9769 79.8498 50.9769Z" fill="#451A03"/>
    <path d="M87.1587 53.8638C86.5491 53.8638 86.0948 53.6367 85.796 53.1824C85.4971 52.7162 85.2999 52.0229 85.2042 51.1024C85.1086 50.17 85.0608 49.0044 85.0608 47.6058C85.0608 46.6853 85.0727 45.8425 85.0966 45.0775C85.1325 44.3124 85.2162 43.6549 85.3477 43.105C85.4792 42.5432 85.6884 42.1128 85.9753 41.814C86.2622 41.5032 86.6626 41.3478 87.1767 41.3478C87.6907 41.3478 88.0912 41.5032 88.3781 41.814C88.665 42.1128 88.8742 42.5432 89.0057 43.105C89.1372 43.6549 89.2149 44.3124 89.2388 45.0775C89.2746 45.8425 89.2926 46.6853 89.2926 47.6058C89.2926 49.7097 89.1431 51.2817 88.8443 52.3217C88.5574 53.3498 87.9955 53.8638 87.1587 53.8638Z" fill="#451A03"/>
    <path d="M94.3241 53.9176C93.4395 53.9295 92.6625 53.7502 91.993 53.3797C91.3356 52.9971 90.8155 52.4831 90.433 51.8376C90.0624 51.1801 89.8652 50.4569 89.8413 49.6679C89.8293 48.855 90.0146 48.1377 90.3972 47.5161C90.7797 46.8826 91.3116 46.3805 91.993 46.0099C92.6744 45.6393 93.4514 45.454 94.3241 45.454C95.1848 45.4421 95.9439 45.6214 96.6014 45.992C97.2708 46.3626 97.8028 46.8646 98.1972 47.4982C98.5917 48.1318 98.8009 48.855 98.8248 49.6679C98.8368 50.4449 98.6515 51.1562 98.269 51.8017C97.8864 52.4353 97.3545 52.9433 96.6731 53.3259C95.9917 53.6964 95.2087 53.8937 94.3241 53.9176ZM94.3779 51.2996C94.7007 51.2996 94.9816 51.1741 95.2207 50.9231C95.4597 50.672 95.5793 50.3792 95.5793 50.0444C95.5793 49.7097 95.4597 49.4228 95.2207 49.1837C94.9816 48.9327 94.7007 48.8072 94.3779 48.8072C94.0551 48.8072 93.7742 48.9327 93.5351 49.1837C93.296 49.4228 93.1765 49.7097 93.1765 50.0444C93.1765 50.3792 93.296 50.672 93.5351 50.9231C93.7742 51.1741 94.0551 51.2996 94.3779 51.2996Z" fill="#451A03"/>
    <path d="M101.461 53.8997C101.055 53.8997 100.72 53.7682 100.457 53.5052C100.206 53.2302 100.015 52.8656 99.8831 52.4114C99.7516 51.9571 99.6619 51.4371 99.6141 50.8513C99.5663 50.2656 99.5424 49.6619 99.5424 49.0403C99.5424 48.6219 99.5483 48.1975 99.5603 47.7672C99.5842 47.3249 99.644 46.9184 99.7396 46.5478C99.8472 46.1773 100.021 45.8784 100.26 45.6513C100.511 45.4122 100.863 45.2927 101.318 45.2927C101.64 45.2927 101.933 45.3704 102.196 45.5258C102.459 45.6692 102.627 45.8904 102.698 46.1892C102.973 45.9382 103.32 45.7589 103.738 45.6513C104.169 45.5317 104.611 45.472 105.065 45.472C105.448 45.472 105.836 45.5676 106.231 45.7589C106.625 45.9382 106.96 46.1892 107.235 46.512C107.51 46.8347 107.647 47.1993 107.647 47.6058C107.647 47.9525 107.516 48.2812 107.253 48.592C107.002 48.9028 106.643 49.0582 106.177 49.0582C105.974 49.0582 105.806 49.0343 105.675 48.9865C105.543 48.9267 105.418 48.8729 105.298 48.8251C105.179 48.7773 105.035 48.7534 104.868 48.7534C104.426 48.7534 104.019 48.9327 103.649 49.2913C103.29 49.638 103.111 50.1102 103.111 50.7079C103.111 51.0187 103.099 51.3594 103.075 51.73C103.063 52.0886 103.009 52.4353 102.913 52.77C102.83 53.1047 102.674 53.3797 102.447 53.5948C102.22 53.798 101.891 53.8997 101.461 53.8997Z" fill="#451A03"/>
    <path d="M112.151 53.8997C111.254 53.8997 110.465 53.7263 109.784 53.3797C109.114 53.021 108.588 52.5369 108.206 51.9272C107.835 51.3056 107.65 50.5943 107.65 49.7934C107.65 49.0164 107.835 48.2991 108.206 47.6416C108.588 46.9842 109.108 46.4582 109.766 46.0637C110.435 45.6692 111.2 45.472 112.061 45.472C112.862 45.472 113.549 45.6333 114.123 45.9561C114.697 46.2789 115.133 46.6913 115.432 47.1934C115.743 47.6835 115.898 48.2035 115.898 48.7534C115.898 49.3033 115.773 49.7575 115.522 50.1162C115.271 50.4628 114.942 50.7318 114.536 50.9231C114.141 51.1024 113.717 51.2219 113.262 51.2817C112.808 51.3415 112.372 51.3534 111.953 51.3176C111.535 51.2697 111.182 51.198 110.896 51.1024C111.111 51.4491 111.38 51.6881 111.702 51.8196C112.037 51.9392 112.384 51.993 112.742 51.981C113.113 51.9571 113.448 51.9153 113.747 51.8555C114.117 51.7718 114.422 51.7897 114.661 51.9093C114.9 52.0288 115.026 52.2201 115.038 52.4831C115.05 52.6983 114.972 52.9134 114.805 53.1286C114.649 53.3438 114.362 53.5291 113.944 53.6845C113.525 53.8279 112.928 53.8997 112.151 53.8997ZM110.949 48.9148C111.069 49.106 111.242 49.2435 111.469 49.3272C111.696 49.3989 111.924 49.4228 112.151 49.3989C112.39 49.375 112.587 49.3093 112.742 49.2017C112.91 49.0941 112.993 48.9447 112.993 48.7534C112.993 48.5502 112.91 48.3709 112.742 48.2155C112.587 48.0481 112.336 47.9644 111.989 47.9644C111.655 47.9644 111.398 48.072 111.218 48.2872C111.039 48.4904 110.949 48.6996 110.949 48.9148Z" fill="#451A03"/>
</svg>
